<?xml version="1.0" standalone="no"?>
<!DOCTYPE svg PUBLIC "-//W3C//DTD SVG 20010904//EN"
 "http://www.w3.org/TR/2001/REC-SVG-20010904/DTD/svg10.dtd">
<svg version="1.0" xmlns="http://www.w3.org/2000/svg"
 width="70.000000pt" height="70.000000pt" viewBox="0 0 70.000000 70.000000"
 preserveAspectRatio="xMidYMid meet">
<metadata>
Created by potrace 1.14, written by Peter Selinger 2001-2017
</metadata>
<g transform="translate(0.000000,70.000000) scale(0.100000,-0.100000)"
fill="#000000" stroke="none">
<path d="M544 651 c-39 -24 -47 -36 -54 -84 -5 -38 -5 -38 -25 -20 -48 45 -92
70 -117 68 -38 -3 -73 -28 -88 -64 -25 -62 8 -106 123 -166 88 -46 107 -62
107 -90 0 -27 -29 -55 -58 -55 -25 0 -42 16 -92 90 -49 72 -90 107 -137 116
-68 13 -145 -50 -145 -118 0 -71 45 -119 122 -133 44 -8 70 -23 70 -41 0 -22
-26 -28 -60 -14 -77 32 -145 1 -157 -73 -7 -43 12 -52 27 -12 5 14 21 30 34
36 20 10 31 8 60 -9 59 -35 97 -33 137 7 63 64 25 148 -78 170 -32 7 -64 18
-70 23 -19 15 -16 62 5 80 40 35 81 9 152 -96 48 -71 82 -96 132 -96 45 0 78
19 106 60 19 29 23 43 18 79 -8 58 -33 84 -127 132 -106 53 -129 78 -91 98 15
8 27 2 62 -29 52 -47 81 -55 120 -35 16 8 39 15 52 15 67 0 121 99 88 161 -14
25 -74 25 -116 0z"/>
</g>
</svg>
